<mxfile host="Electron" modified="2023-05-28T16:24:53.250Z" agent="Mozilla/5.0 (Windows NT 10.0; Win64; x64) AppleWebKit/537.36 (KHTML, like Gecko) draw.io/21.2.8 Chrome/112.0.5615.165 Electron/24.2.0 Safari/537.36" etag="q6HP-XXV_rzc7-n1zuD7" version="21.2.8" type="device">
  <diagram name="Page-1" id="GMBlnIWT8nl3RLmwGzn0">
    <mxGraphModel dx="934" dy="601" grid="1" gridSize="10" guides="1" tooltips="1" connect="1" arrows="1" fold="1" page="1" pageScale="1" pageWidth="850" pageHeight="1100" math="0" shadow="0">
      <root>
        <mxCell id="0" />
        <mxCell id="1" parent="0" />
        <mxCell id="HBlmB3R37yt-VyoNsGTj-1" value="" style="rounded=0;whiteSpace=wrap;html=1;" parent="1" vertex="1">
          <mxGeometry x="70" y="40" width="300" height="430" as="geometry" />
        </mxCell>
        <mxCell id="HBlmB3R37yt-VyoNsGTj-2" value="Let&#39;s Eat" style="text;html=1;strokeColor=none;fillColor=none;align=center;verticalAlign=middle;whiteSpace=wrap;rounded=0;" parent="1" vertex="1">
          <mxGeometry x="90" y="50" width="60" height="30" as="geometry" />
        </mxCell>
        <mxCell id="HBlmB3R37yt-VyoNsGTj-3" value="" style="rounded=0;whiteSpace=wrap;html=1;" parent="1" vertex="1">
          <mxGeometry x="90" y="80" width="260" height="150" as="geometry" />
        </mxCell>
        <mxCell id="joABk6kAaEG2zfj-D_lI-1" value="&lt;font style=&quot;font-size: 10px;&quot;&gt;Add&lt;/font&gt;" style="strokeWidth=1;shadow=0;dashed=0;align=center;html=1;shape=mxgraph.mockup.buttons.button;strokeColor=#666666;fontColor=#ffffff;mainText=;buttonStyle=round;fontSize=17;fontStyle=1;fillColor=#008cff;whiteSpace=wrap;verticalAlign=middle;" vertex="1" parent="1">
          <mxGeometry x="250" y="180" width="80" height="30" as="geometry" />
        </mxCell>
        <mxCell id="joABk6kAaEG2zfj-D_lI-5" value="Added item 1&lt;br&gt;Added item 2&lt;br&gt;Added item 3&lt;br&gt;Added item 4" style="text;html=1;strokeColor=none;fillColor=none;align=center;verticalAlign=middle;whiteSpace=wrap;rounded=0;" vertex="1" parent="1">
          <mxGeometry x="90" y="90" width="120" height="100" as="geometry" />
        </mxCell>
        <mxCell id="joABk6kAaEG2zfj-D_lI-6" value="" style="verticalLabelPosition=bottom;verticalAlign=top;html=1;shape=mxgraph.basic.x" vertex="1" parent="1">
          <mxGeometry x="280" y="110" width="10" height="10" as="geometry" />
        </mxCell>
        <mxCell id="joABk6kAaEG2zfj-D_lI-7" value="" style="verticalLabelPosition=bottom;verticalAlign=top;html=1;shape=mxgraph.basic.x" vertex="1" parent="1">
          <mxGeometry x="280" y="120" width="10" height="10" as="geometry" />
        </mxCell>
        <mxCell id="joABk6kAaEG2zfj-D_lI-8" value="" style="verticalLabelPosition=bottom;verticalAlign=top;html=1;shape=mxgraph.basic.x" vertex="1" parent="1">
          <mxGeometry x="280" y="140" width="10" height="10" as="geometry" />
        </mxCell>
        <mxCell id="joABk6kAaEG2zfj-D_lI-9" value="" style="verticalLabelPosition=bottom;verticalAlign=top;html=1;shape=mxgraph.basic.x" vertex="1" parent="1">
          <mxGeometry x="280" y="150" width="10" height="10" as="geometry" />
        </mxCell>
        <mxCell id="joABk6kAaEG2zfj-D_lI-14" value="Days Since&lt;br&gt;0&lt;br&gt;1&lt;br&gt;3&lt;br&gt;5" style="text;html=1;strokeColor=none;fillColor=none;align=center;verticalAlign=middle;whiteSpace=wrap;rounded=0;" vertex="1" parent="1">
          <mxGeometry x="190" y="120" width="80" height="30" as="geometry" />
        </mxCell>
        <mxCell id="joABk6kAaEG2zfj-D_lI-15" value="" style="html=1;verticalLabelPosition=bottom;align=center;labelBackgroundColor=#ffffff;verticalAlign=top;strokeWidth=2;strokeColor=#0080F0;shadow=0;dashed=0;shape=mxgraph.ios7.icons.reload;" vertex="1" parent="1">
          <mxGeometry x="330" y="90" width="6.22" height="7" as="geometry" />
        </mxCell>
        <mxCell id="joABk6kAaEG2zfj-D_lI-17" style="edgeStyle=orthogonalEdgeStyle;rounded=0;orthogonalLoop=1;jettySize=auto;html=1;entryX=1.486;entryY=0.716;entryDx=0;entryDy=0;entryPerimeter=0;" edge="1" parent="1" source="joABk6kAaEG2zfj-D_lI-16" target="joABk6kAaEG2zfj-D_lI-15">
          <mxGeometry relative="1" as="geometry" />
        </mxCell>
        <mxCell id="joABk6kAaEG2zfj-D_lI-16" value="Reset Days Since&lt;br&gt;Save to cookies (permanent)" style="text;html=1;strokeColor=none;fillColor=none;align=center;verticalAlign=middle;whiteSpace=wrap;rounded=0;" vertex="1" parent="1">
          <mxGeometry x="380" y="80" width="110" height="30" as="geometry" />
        </mxCell>
        <mxCell id="joABk6kAaEG2zfj-D_lI-18" value="" style="rounded=1;whiteSpace=wrap;html=1;" vertex="1" parent="1">
          <mxGeometry x="110" y="180" width="120" height="30" as="geometry" />
        </mxCell>
        <mxCell id="joABk6kAaEG2zfj-D_lI-19" value="Let&#39;s eat at..&lt;br&gt;[initially empty]" style="text;html=1;strokeColor=none;fillColor=none;align=center;verticalAlign=middle;whiteSpace=wrap;rounded=0;" vertex="1" parent="1">
          <mxGeometry x="100" y="270" width="120" height="30" as="geometry" />
        </mxCell>
        <mxCell id="joABk6kAaEG2zfj-D_lI-20" value="&lt;font style=&quot;font-size: 10px;&quot;&gt;Decide for me&lt;/font&gt;" style="strokeWidth=1;shadow=0;dashed=0;align=center;html=1;shape=mxgraph.mockup.buttons.button;strokeColor=#666666;fontColor=#ffffff;mainText=;buttonStyle=round;fontSize=17;fontStyle=1;fillColor=#008cff;whiteSpace=wrap;verticalAlign=middle;" vertex="1" parent="1">
          <mxGeometry x="245" y="270" width="80" height="30" as="geometry" />
        </mxCell>
        <mxCell id="joABk6kAaEG2zfj-D_lI-23" style="edgeStyle=orthogonalEdgeStyle;rounded=0;orthogonalLoop=1;jettySize=auto;html=1;exitX=1.076;exitY=0.502;exitDx=0;exitDy=0;exitPerimeter=0;" edge="1" parent="1" source="joABk6kAaEG2zfj-D_lI-20" target="joABk6kAaEG2zfj-D_lI-21">
          <mxGeometry relative="1" as="geometry" />
        </mxCell>
        <mxCell id="joABk6kAaEG2zfj-D_lI-21" value="Let&#39;s eat at..&lt;br&gt;Some Restaurant" style="text;html=1;strokeColor=none;fillColor=none;align=center;verticalAlign=middle;whiteSpace=wrap;rounded=0;" vertex="1" parent="1">
          <mxGeometry x="390" y="270" width="120" height="30" as="geometry" />
        </mxCell>
        <mxCell id="joABk6kAaEG2zfj-D_lI-22" value="&lt;font style=&quot;font-size: 10px;&quot;&gt;Veto!&lt;/font&gt;" style="strokeWidth=1;shadow=0;dashed=0;align=center;html=1;shape=mxgraph.mockup.buttons.button;strokeColor=#666666;fontColor=#ffffff;mainText=;buttonStyle=round;fontSize=17;fontStyle=1;fillColor=#008cff;whiteSpace=wrap;verticalAlign=middle;" vertex="1" parent="1">
          <mxGeometry x="535" y="270" width="80" height="30" as="geometry" />
        </mxCell>
        <mxCell id="joABk6kAaEG2zfj-D_lI-24" value="** Will rerun the randomizer but excluding the restaurant it&#39;s currently on **" style="text;html=1;strokeColor=none;fillColor=none;align=center;verticalAlign=middle;whiteSpace=wrap;rounded=0;" vertex="1" parent="1">
          <mxGeometry x="490" y="310" width="210" height="30" as="geometry" />
        </mxCell>
        <mxCell id="joABk6kAaEG2zfj-D_lI-25" value="&lt;font style=&quot;font-size: 10px;&quot;&gt;Button that for stating we ate at a restaurant; Days since -&amp;gt; 0&lt;/font&gt;" style="strokeWidth=1;shadow=0;dashed=0;align=center;html=1;shape=mxgraph.mockup.buttons.button;strokeColor=#666666;fontColor=#ffffff;mainText=;buttonStyle=round;fontSize=17;fontStyle=1;fillColor=#008cff;whiteSpace=wrap;verticalAlign=middle;" vertex="1" parent="1">
          <mxGeometry x="120" y="330" width="210" height="60" as="geometry" />
        </mxCell>
        <mxCell id="joABk6kAaEG2zfj-D_lI-26" value="Days since functionality phase 2, with import functionality" style="text;html=1;strokeColor=none;fillColor=none;align=center;verticalAlign=middle;whiteSpace=wrap;rounded=0;" vertex="1" parent="1">
          <mxGeometry x="400" y="400" width="230" height="30" as="geometry" />
        </mxCell>
      </root>
    </mxGraphModel>
  </diagram>
</mxfile>
